<?xml version="1.0" encoding="utf-8"?>
<svg xmlns="http://www.w3.org/2000/svg" version="1.1" viewBox="0 0 16 16">
  <style>
    @media (prefers-color-scheme: dark) {
     :root {
      --bg: #000;
      --logo: #fff;
     }
    }
  </style>
  <path d="M0,4c0-2.2,1.8-4,4-4h8c2.2,0,4,1.8,4,4v8c0,2.2-1.8,4-4,4H4c-2.2,0-4-1.8-4-4V4z" fill="var(--bg, #fff)"/>
  <path d="M12.5,6.6c-0.1-0.1-0.3-0.2-0.4-0.3c-0.1-0.1-0.3-0.1-0.3-0.2c0,0-0.1-0.1-0.1,0c-0.1,0-0.1,0-0.2,0c0,0-0.1,0-0.2,0	c-0.1,0.1-0.3,0.3-1.9,1.7C9.1,8,8.8,8.3,8.5,8.5c0.1-0.3,0.2-0.8,0.2-1c0.1-0.4,0-0.4,0.4-0.8c0.3-0.4,0.3-0.5,0.4-0.8	c0,0,0.1-0.2,0.1-0.3c0-0.1,0-0.2,0.1-0.3c0-0.1,0-0.1-0.1-0.1c-0.1,0-0.7,0-0.9,0c-0.2,0-1,0-1.2,0.1c0,0-0.2,0.1-0.3,0.3	c-0.1,0.2-0.1,0.2,0,0.4c0.1,0.2-0.1,0.4-0.2,0.6C7.1,6.6,6.2,7.8,5.9,8.2c-0.3,0.4-0.8,1-1.4,1.2c0,0-0.8-3,3.2-6.7	c0,0,0.1-0.1,0.2-0.1c0.1,0,0.2,0.1,0.3,0.1c0.1,0,0.4,0.2,0.7,0.1C9.2,2.6,9.3,2.1,9,1.7C8.7,1.3,8.2,1.2,7.8,1.1	c-0.4-0.1-1-0.1-1.5,0C5.8,1.2,5.1,2,4.4,3.1C3.8,4.2,3.9,4.4,3.7,4.8C3.6,5.2,2.5,7.6,3.3,9.4c0.8,1.7,1.3,1.2,2,1	C6,10.2,6.7,9.5,7.1,8.8c0,0-0.1,0.6-0.2,1.4c0,0,0,0,0,0c-0.5,0.6-0.9,1.2-1.1,1.7c-0.5,1.2-0.1,2.2,0.5,2.8	c0.7,0.6,2.3,0.1,3.2-0.2c0.9-0.2,1.5-0.4,1.5-0.4S9.9,14.1,9,14c0,0-0.9,0-1.3,0c-0.2,0-0.4,0-0.5-0.2c0.1-0.1,0.2-0.3,0.3-0.6	c0-0.1,0.1-0.2,0.1-0.3C8.3,12,9.9,9.9,12,8.5c0.4-0.3,0.6-0.7,0.7-1C12.8,7.1,12.6,6.7,12.5,6.6L12.5,6.6z" fill="var(--logo, #000)"/>
</svg>
