<?xml version="1.0" encoding="utf-8"?>
<svg xmlns="http://www.w3.org/2000/svg" viewBox="0 0 148 77.09">
  <path d="M72.4 17.4c.2 0 .7 0 1-.3.2-.3.7-.5 1.2-1 .4-.3 1.4-1.3 1.8-2.4.4-1 1.1-1.8 1.3-2 .2-.2 0 0-.3.1-.3.2 0-.1 0-.2l-1 .7c-.3.4-3.3 3.3-4.3 3.7 0 0-.2.2-.5.1-.3 0-.3.2-.3.4-.1.1.9.9 1.1 1z M19.3 21h-2.6c-.7 0-2.8 0-3.4.3 0 0-.6.3-.8.8-.1.5-.2.7 0 1.1.1.5-.3 1.3-.5 1.7-.2.5-2.7 3.8-3.6 5-.8 1-2.2 2.9-4 3.5 0 0-2.3-9 9.4-19.6 0 0 .4-.4.6-.3l.8.3c.4.2 1.2.7 1.9.2.7-.5 1.1-2 .3-3-1-1.2-2.5-1.5-3.7-1.9-1.1-.4-2.9-.2-4.3 0C7.9 9.5 6 11.8 4 15c-1.8 3.3-1.6 3.7-2 5-.5 1.2-3.5 8.2-1.3 13.3 2.3 5.2 3.8 3.6 5.8 3 2-.5 4-2.7 5.4-4.6l-.5 4.1c-.4 2.3-1 5.3-.7 7.2.3 2 .5 3.5.8 3.5.3.1.9-.3 1.4-1.9.6-1.6.8-1.5.9-2.6.1-1.2.3-1.7-.1-2.3 0 0 0-2 .5-3.6 0 0 .5-1.1.7-2 .2-1 .6-1.4.9-2.7l.8-3.5c.2-1.1.1-1.3 1-2.5s1-1.4 1.3-2.3l.3-1 .2-.8c.2-.2 0-.2-.2-.2z M88.8 23.5s-1-1.7-.6-2.3a.8.8 0 0 1 1.4 0c.3.5.3 1-.8 2.3zm-38.4 2.1 2-3.2h1.1c.4-.2 1-.6 1-.2 0 .3-2.1 3.7-3 4.8-.8 1-2 2-2 2s0-1.9 1-3.4zm-24.9-4.5s-.6 1.8-2 3.8c-1.5 2-3 3.1-3 1.7 0-1.4 1-3.6 1.5-4.3.6-.7 2.7-3.6 4.1-3.7 0 0-.5 1.6-.6 2.5zM79 25c.1-.7.2-1.1.6-1 .4 0 .4 1 .2 1.6-.4 1-1.4 2-1.4 2L79 25zm17.5 9.2c-.2-2-2.3-4.5-4.1-6-2.1-1.6-3.1-4-3.1-4 .3-.3 1.8-2 2-3 .3-1-.4-1.3-1-1.4l-1.7-.3c-.3-.1-.3.1-1 .7-.7.5-.9.3-1 1.8-.2 1.6.8 3.4.8 3.4l-4.6 5.3C80.6 32.9 79 34 79 34H79c-.7.5-.7-.2-.8-.8 0-.6 0-1.2-.2-1.8-.1-.6.1-2.4.1-2.4l.3-.4.5-.6-.1.3-.3.4s.2 0 .3-.3l.4-.4c0-.1 0 0 0 0 0 .2-.2.3-.3.5l-.3.4.4-.3c0-.1 1.8-2 2.4-4.1.6-2-.8-2.3-1.2-2.3h-1.4c-1 0-1.6 1.5-2.7 4.1-1 2.6-1 4.8-1 4.8l-.2.3.2-.2-.1.3-.2.3-.3.3V32l.2-.2v-.1c-2.8 3.3-4.7 4.1-5 4.2-.4 0-.3-.6-.3-1l.3-1.6c.1-.4.3-1.7.7-2.4.5-.8.6-1.2 1-2.4.5-1.1 2-6.6 2-7 0-.2 0-.7-.2-1l-.5-.6c-.3-.2-.6-.3-1.3-.4H70c-.5 0-.5.6-.5.6-.2.3-.3.2-.2 1.6.2 1.4-.4 3-2.1 6.6-1.8 3.5-3.6 5.7-3.6 5.7s-.2-2.3-.2-3.2c0-.9.5-2.4.2-4-.2-1.7-1.9-2.5-3.1-3.3-1.2-.8-.3-2-.2-2.6.2-.5-.3-.5-.8-.5s-.5 0-.7.2c-.3 0 .2-.2-.3.7-.5.9.1 2.4.1 2.4L57 26.4c-.8 1.2-3.7 5.7-4.3 6.4-.6.7-2 1.7-2.6 1-.7-.6-.5-2.8-.5-2.8l1.6-2c.9-1 1.3-1.7 1.3-1.7s.3 0 2.4-2.5c2-2.5 1.7-3.6 1.7-4.4 0-.7-1-1.2-2-1.7s-1.3-.4-1.6-.3c-.3 0-.4-.3-.6-.1l-.6.4c-.2 0-.6.6-1 .7-.2 0-.7.1-.4.5.3.4 0 .7 0 .7-4 5.6-3.2 11.4-3.2 11.4l-2.3 1.7a2 2 0 0 1-1.3.2c-.8 0-2.3-.5-3.2-1.9-1.1-1.7-.9-7.5-.3-11.2.5-3.7 3-13.7 3.2-14.9.3-1.2.2-2.2.2-2.2 0-.7.6-2 .7-2.2.2-.2.2-.3 0-.4-.3 0-.5-.3-.6-.5-.1-.2-.7-.1-.9 0L41.4 0h-1c-.1.1-.2.4-.3.3 0 0-.2-.3-.3-.1v.3c0 .2-.3.5-.4.4-.2 0-.1-.3-.2 0 0 .2 0 .2-.2.3 0 0-.1-.1-.2 0l-.1.3v.5c0 .7-.5 2-1.4 5-.9 3.1-1.7 7.6-1.7 7.6-.8 3.8-2.4 7.2-2.8 8.2-.4 1.1-1.3 2.6-1.8 3.4-.5.8-.7 1.9-1.3 2.1-.7.2-1 1-1 1s-.2-2.6.2-5c.3-2.4 1-4.4 1.2-5l.5-1.8c.1-.4.3-.6 0-.6a6 6 0 0 1-1-.5l-.5-.2-.9-.2-.7-.3h-.3l-.6 1.2s-.7 0-1.3.5c-.6.4-2 1.1-3.2 3l-2 3.3-.7 2.7c-.3 1.3-.2 2.1 0 2.4l.6.8c.3.2.6.6 1 .3s1.3-1.2 1.9-1.4c.5-.3 1.2-1.5 2-1.8v2.8c-.1 1.5-.3 2.4.2 2.9.5.4 1.1 1.3 1.5 1.3.5 0 .7-.4 1-.2.5.1.8 0 1.6-1.3s3.9-6.3 5.2-10c0 0 0 8.2 2.8 11.2 3 3 4.6 3.6 8.4 1 0 0 .1.2.3.1.1 0 .4-.7 1.6-1.3 0 0 .5 2 1.8 2.7 1.2.7 2.5.7 3.2.2.8-.5 1.7-1.7 3-3.4.8-1.2.9-2.3 1.8-3.7.9-1.4.7-2 1-2.6l1-2s.7.7 1.3 1c.6.4.5 2 .2 3s-.5 4.7.9 6.5c1.3 1.9 2.6 1.7 3.4.9.8-.8 1.4-2 1.9-3.2 0 7.2 3.4 5.2 4.7 4.1 1.3-1 3.7-4 3.7-4 .4 3.5 2.4 4 3.5 4 1.1-.2 2-2 2.7-3 .6-1 2.2-2.7 2.6-3.1l1.2-1.7 2.4-2.8 1 1.4c.3.5 1.8 1.8 2.4 2.5.7.7 1.3 2 1.3 2H92l-.6-.3h-.7l-.5-.2c-.2-.1-.3-.3-.5-.3s-.3 0-.4-.2V31l-.3.1-.4.2-.2-.1c-.1-.1-.1-.2-.2 0 0 .2-.1 0-.2-.1 0-.1 0 .1-.1 0l-.2-.1c.1 4.1 3.3 5.5 4.8 6 1 .2 2.4.1 3.2-.6v.3c.1 0 .3-.5.4-.4l-.1.8c.2-.4.2-1.2.2-1.3 0-.2.1 0 .3 0v.2c.4-.4 0-1.7 0-1.7z M59 73.5h-.2v.5c.1.2 0 .5 0 .8v.4l.1-.5.2-.6v-.6z M59.7 71.3v-.4h-.1v.6h.1v-.2z M59.3 70.8v.4-.1h.1v-.2z m59.6 72.8-.1.2v.2-.2h.1v-.1c0-.1 0-.1 0 0z M33 64.7c-1 .5-1.8.7-1.6-1.3 0 0 1.1-10.7 5.4-18.7.7-1.2.6-2.6.6-3.7-.1-1-1.4-1.8-1.8-2l-1.6-.3h-1c-.1 0-.3-.1-.4 0l-.4.4c-.1 0-.4 0-.5.3l-2.5 6.9C27 52 25.5 58 25.7 61.8a6.7 6.7 0 0 0 5 6.5c2.6.6 6-2.8 8-4.6l3.2-3-5.3 2.3-3.5 1.7z m53.7 69.7.1-.5v-.4s-.2 0-.2.2v.3c0 .1 0 .8.1.4z M106.9 54.2c-3 4.8-4.7 6.7-4.7 6.7l.1-3c0-1 0-1.5.5-2.7.4-1.2.7-2.6 1-4.3a39.4 39.4 0 0 1 1.8-6.6 32.1 32.1 0 0 0 6.9-1.5c-1.7 3.9-3.8 8.4-5.6 11.4zm19.9-5.6c.7-2.4 3-5.3 3-5.3.3-.6.8-.9 1-.7 0 0 .9.2 1.2.5.3.3.4.3-.3 1.4l-2.6 3.9-3 3.1.7-3zM83 65.4c-.4 2.5-3 8-4.8 7-1.8-1-.5-6.5 4.6-10.2l.6-.5a103 103 0 0 1-.4 3.7zm-15.3-13-.2.8c-1 1-1.8 1.7-2.3 2-.5.3-.4-.3-.2-1 .2-1 .6-2.4 2-3.5.7-.7 1.2-.9 1.6-1l-1 2.6zm24.4-1c1.5-2.6 3-3 3.1-2.3.2.8-2.8 4-3.8 5l-.7.7c.2-1 .7-2 1.4-3.3zm31.9 6c1.5 6.3 5.9 9.2 9.1 10.4 3.8 1.4 9.1-.3 10-.8.8-.5 1-.7.2-.7-.7 0-5 .8-6.6.6-1.6-.2-2.4-.2-4.3-1.5a17.2 17.2 0 0 1-6.2-10l.2-.3 1-1c1-1 3.4-2.6 5-4.2 1.8-1.6 3.5-3.3 4-4l1.7-2.4c.3-.3.2-.5.1-.8l-.1-.6c-.2-.2.2-.5 0-1.1-.3-.6-1.2-.7-1.7-.7l-2.6-.4-1.4-.2c-.2 0-.2-.2-.2-.2-.2.2-1 0-1.5 0s-1.1 0-1.4.4c-.3.5-1.1 1.1-2 2-.8.8-1.1 2-1.1 2-.7 1.1-3.1 4-2.7 10v.3c-3.7 4-8 8.2-9.1 9.3-2 1.8-2.3 2.4-2.7 1.8-.5-.5 1.5-7.7 2.3-10.2a208.5 208.5 0 0 0 3.5-13.5l5.9-1.5c4.4-1.1 14.2-4 16.8-4.8 0 0 3.3-1 4.4-1.5l2.5-1 .3-.1c.2-.1 0-.2.1-.2l.4-.2h-.5c0-.2 0-.2-.2-.2h-1l-4 .7-22.3 4.7-1.3.3 2.5-8.3.8-1.9V27l-.2-.5-.8-.2h-.9l-.9.1H117.5c-.2.2 0 .4-.3.4-.2 0-.2.2-.2.2l-.2.9s.1.9-.4 2.3-.8 2.8-1.7 6.4l-.7 2.3a353.8 353.8 0 0 1-7.4 1.5 97 97 0 0 0 1.1-5.2c.3-1.8 0-3.5 0-3.5-.3-1.6-.4-3-1-3.7-.5-.7-1.1-1.1-1.7-1.1h-1.2c-.3 0-.1.4-.1.4-.6 0-.9.1-.7 1.4a65 65 0 0 1-2 12.6l-5.2.6c-1.7 0-1.9 0-2.3-.2 0 0-.6-.2-.7 0v.8s-.2.2 0 .4c0 .2.5.4 1 .5l1 .6s.4.4 1.8.3h3.6l-.8 2.8-3 6.3c-2.3 5-4.3 7-5.1 6.9-.6-.1-.7-1.1-.8-1.8v-.4l.1-2.1c2.1-2 4.6-4.8 5.6-6 1.4-1.7 0-2.3-.7-2.3-1 0-1.9.2-3.9 2.4-1.3 1.5-2.1 4-2.5 6l-1.5 1-1.3.9.7-2.6.3-1.8.1-.5c.3-2-.3-2.8-.7-2.9-.4 0-.4-.3-1-.5-.4-.3-.5-.2-.8 0-.3.2-.3 0-.4 0l-.8.7-2.5 3c-.7.9-2.4 2.1-3.1.9-.7-1.2-.3-3.4 0-3.8.4-.5.4-.6.3-.7 0-.1-.4-.2-.7 0-.4 0-.4.2-.6.5-.2.3-.4.7-1.4 1.6-1 .9-4.5 5.3-4.8 5.7-.3.3-.3.2-.4.2l.2-2.4c.1-.8.6-2.8 1-3.8l1-2 .5-1.5v-.6l-1-.1-1.3-.1-1-.3-.8 1.6c-.4 0-1 .2-1.5.4-.7.3-2.2 1.1-3.2 3.6s-.4 3.3-.2 3.4c.2.1.6.6 1.2.3a23 23 0 0 0 1.8-1.2c-.2 1.8-.4 3.6-.3 4.2 0 1-.4 1 .7 2 1 .8 1 .8 1.3.6.3-.1.6 0 .8.2.2.1.8.5 1 .2.2-.4.4-1 1.1-2 .7-.9 3.6-5.7 5-7.3 0 0-.2 2.7 2.1 3 2.4.3 3-1.8 5.2-2.5v2.2l-.4 4.3-2.3 1.9c-4.5 3.9-7.9 9.8-5 13 3.2 3.7 7.3-4.3 8.7-10.7L86 60a86 86 0 0 1 2.6-2.3l.4-.3v.7s-.4 2.1 1.1 3.3c1.6 1.2 3.1 1 5.6-2.6l2.9-4.3s0 1.6-.4 3.8c-.2 2.2.3 5.4 3.2 7 2.9 1.8 3.5-.5 4.1-1.8.7-1.2 4-6.6 4.7-8.3.8-1.8 2.1-3.5 2.1-3.5l-.6 3.7c-.4 1.8-.5 4.3-.7 7.1-.2 2.8.5 3.7.5 3.7 1 1.7 6.2-3 8.5-5l4.2-3.7z M59.7 63.4v-.2h-.1v.3-.1z M59.5 59.5c0 .2-.1.5-.3.5-.1.1-.4.3-.4-.1l.5-4.2.1-.4v1.2c0 .3-.2.7 0 1v.5c0 .2-.3.5-.1.6 0 .2.3.3.2.3l-.4.1.2.4s.3-.1.2.1zm-.9 9.2.1.5c0 .1 0 0 0 0v.3c0 .2-.3 0-.3 0v-1c.2 0 .2 0 .2.2zm-13.4-19c-.3.6-1 4-1 4s-3.5 4-4.8 4.9c-1.3 1 1.5-4.2 2.6-5.8 1.1-1.6 2.5-2.8 2.9-3.1.3-.4.5-.5.3 0zm17.6-7c1.2-2 2.2-2.9 2.4-2.7.3.1.3 1.7-1 4.4-1.5 2.7-4 5-4 5 .3-1 1.4-4.6 2.6-6.6zm.1 10.7c.2-.1.1-.2.1-.2h-.2V53c-.1 0 0-.1 0-.2l-.2-.1-.1-.1v-.1h-.2c.1 0 0-.1-.1 0h-.5l-1.7.3v-.5l.1-.3v-.5l-.2-.2 1.6-2c.8-.8 3.1-3.4 4.2-6.5 1.1-3 .6-3.3-.5-3.8-1-.6-2.4-.3-3.6-.1l-2.2.3c-.4 0-.6.2-.5.4l-.4.8-.4 1-.3.8c.1 0 .3-.2.3 0v.5l-.7 2-2.4 5.2-1.4 2.8c-.3.6-.3 1-.8 1l-1 .3c-.3.1 0 .3-.4.4l.1.1v.5h.1l.1.3.4.2-2.3 4c-.2.6-.4.6-.3-.4 0-1 0-6.7.5-8 .5-1.4.8-2.3.3-2.9l-.3-.6-.1-.2-.3-.2h-1.4l-.6.2c-.2 0-.6.1-.8 0v-.1h-.4c-.4.3-.3.2-.7.1-.5 0-.8.3-2.8 2a20 20 0 0 0-4.2 7.1c-.3 1.3-1 2-.4 2.8.7.8 1.7 0 2.7-1l3-2.4c0 3.2.6 8.2.8 9.5.2 1.4 2.8 2.3 4.1 2.1 1.4-.1 2.2-3.1 3-4.8l2.7-5-.2 1-.4 7 .1 1V70c0 .5-.3.8-.3.4V70c-.2 1.7-.2 3.2-.2 4.1 0 1.7.6 2 .8 2.2.2.2.2-.2.5.2l.8.3c.5 0 .6.3.7.3.2-.1.1-.4.4-.4h.6l.5.1.2.1.2-.6.2-1.5v-4c0-.2.1-.4.3-.4.3 0 .2.3 0 .7v1.3c.1.2.2 0 .3-.6v-1.1c0-.3-.2-.9 0-1.2 0-.3 0-.4.2-.3l.5.2s0-.4-.3-.5l-.2-.4s-.5.5-.5 0l.2-1c0-.4-.3-.4-.2-.6 0-.3 0-.3.2-.3l-.1-.5c-.1 0-.4 0-.4-.5v-1.4s0-.3.4-.6.1-.4-.1-.7c-.2-.3.1-.6.1-1v-.6s.3-.2.4 0c.2.1 0 .4 0 .6v.5c.2 0 .2.2.3.3 0 0 .2 0 .1-.4 0-.3.2-.6 0-.5 0 0-.2 0 0-.3.2-.2 0-.2 0-.5l.1-.4s-.2.6-.3 0v-.5H59.8V60c.1-.1 0-.2 0-.2h-.1c0 .1 0 0 0 0h-.1v-.4c0-.8.4-1.2.4-1.8l.2-1.7v-.7l.5-.1c1.4-.4 2.4-1.3 2.4-1.3H63s-.5.2-.2 0l.4-.4s-.4.2-.3 0z m59.6 66.6-.2-.2s-.1.5 0 .8c.1.2.3-.6.3-.6z M59.3 65V64.7l.1-.1.1-.2v-.1c-.1-.1-.3.1-.3.2v.3l.1.2z"/>
</svg>
